<?xml version="1.0" encoding="UTF-8"?>
<svg width="512pt" height="512pt" version="1.1" viewBox="0 0 512 512" xmlns="http://www.w3.org/2000/svg">
 <path d="m495.79 453.43h-26.918v-17.223l27.695-13.109c2.25-1.0859 3.7227-3.3359 3.7227-5.8945v-185.64c0-2.4844-1.4727-4.8086-3.7227-5.8945l-27.695-13.109v-8.8438c0-11.793-9.6211-21.332-21.332-21.332h-66.406v-24.203c0-15.902-12.957-28.781-28.781-28.781h-31.883v-35.84h94.797v6.9805c0 3.5703 2.9492 6.5156 6.5156 6.5156h26.066c3.5703 0 6.5156-2.9492 6.5156-6.5156v-82c0-3.5703-2.9492-6.5156-6.5156-6.5156h-26.066c-3.5703 0-6.5156 2.9492-6.5156 6.5156v9.3867h-105.04c-30.488 0-55.234 24.746-55.234 55.234v3.4141h-139.71c-15.902 0-28.781 12.957-28.781 28.781v66.871h-22.031c-11.793 0-21.332 9.6211-21.332 21.332v8.8438l-27.695 13.109c-2.25 1.0859-3.7227 3.3359-3.7227 5.8945v185.64c0 2.4844 1.4727 4.8086 3.7227 5.8945l27.695 13.109v17.223h-26.918c-3.5703 0-6.5156 2.9492-6.5156 6.5156v33.512c0 3.5703 2.9492 6.5156 6.5156 6.5156h479.57c3.5703 0 6.5156-2.9492 6.5156-6.5156v-33.512c0-3.4883-2.9492-6.3594-6.5195-6.3594zm-8.4531-217.75v177.41l-18.465 8.6875v-194.79zm-39.797-40.34c4.5781 0 8.3789 3.7227 8.3789 8.3789v249.71h-74.781l-0.003906-258.09zm-79.438-37.238v295.33h-224.2v-295.33c0-8.6875 7.0586-15.824 15.824-15.824h192.54c8.7695 0.078124 15.828 7.1367 15.828 15.824zm60.121-133.04h13.109v68.887h-13.109zm-160.27 58.18c0-23.273 18.93-42.203 42.203-42.203h105.04v39.484l-101.24 0.003907c-3.5703 0-6.5156 2.9492-6.5156 6.5156v42.355h-39.484zm-168.49 32.195c0-8.6875 7.0586-15.824 15.824-15.824h139.71v29.633h-95.34c-15.902 0-28.781 12.957-28.781 28.781v24.203h-31.418zm-74.785 297.66v-177.41l18.465-8.6875v194.79zm31.418 18.93v-228.38c0-4.5781 3.7227-8.3789 8.3789-8.3789h66.406v258.09h-74.785zm433.18 54.922h-466.54v-20.48h466.54z"/>
 <path d="m77.809 237.38h30.332c3.5703 0 6.5156-2.9492 6.5156-6.5156 0-3.5703-2.9492-6.5156-6.5156-6.5156h-30.332c-3.5703 0-6.5156 2.9492-6.5156 6.5156 0 3.5664 2.9453 6.5156 6.5156 6.5156z"/>
 <path d="m108.14 265.08h-30.332c-3.5703 0-6.5156 2.9492-6.5156 6.5156 0 3.5703 2.9492 6.5156 6.5156 6.5156h30.332c3.5703 0 6.5156-2.9492 6.5156-6.5156 0-3.6484-2.9453-6.5156-6.5156-6.5156z"/>
 <path d="m108.14 305.73h-30.332c-3.5703 0-6.5156 2.9492-6.5156 6.5156 0 3.5703 2.9492 6.5156 6.5156 6.5156h30.332c3.5703 0 6.5156-2.9492 6.5156-6.5156 0-3.5664-2.9453-6.5156-6.5156-6.5156z"/>
 <path d="m108.14 346.38h-30.332c-3.5703 0-6.5156 2.9492-6.5156 6.5156 0 3.5703 2.9492 6.5156 6.5156 6.5156h30.332c3.5703 0 6.5156-2.9492 6.5156-6.5156s-2.9453-6.5156-6.5156-6.5156z"/>
 <path d="m403.86 237.38h30.254c3.5703 0 6.5156-2.9492 6.5156-6.5156 0-3.5703-2.9492-6.5156-6.5156-6.5156h-30.254c-3.5703 0-6.5156 2.9492-6.5156 6.5156 0 3.5664 2.9453 6.5156 6.5156 6.5156z"/>
 <path d="m403.86 278.03h30.254c3.5703 0 6.5156-2.9492 6.5156-6.5156 0-3.5703-2.9492-6.5156-6.5156-6.5156h-30.254c-3.5703 0-6.5156 2.9492-6.5156 6.5156 0 3.6445 2.9453 6.5156 6.5156 6.5156z"/>
 <path d="m403.86 318.76h30.254c3.5703 0 6.5156-2.9492 6.5156-6.5156 0-3.5703-2.9492-6.5156-6.5156-6.5156h-30.254c-3.5703 0-6.5156 2.9492-6.5156 6.5156 0 3.5703 2.9453 6.5156 6.5156 6.5156z"/>
 <path d="m434.19 346.38h-30.254c-3.5703 0-6.5156 2.9492-6.5156 6.5156 0 3.5703 2.9492 6.5156 6.5156 6.5156h30.254c3.5703 0 6.5156-2.9492 6.5156-6.5156s-2.9453-6.5156-6.5156-6.5156z"/>
 <path d="m169.35 164.69c-0.85156 0-1.707 0.15625-2.4844 0.46484-1.6289 0.62109-2.8711 1.9375-3.4922 3.4922-0.30859 0.77734-0.46484 1.6289-0.46484 2.4844v166.55c0 0.85156 0.15625 1.707 0.46484 2.4844s0.77734 1.4727 1.3203 2.0156c0 0 0 0.078125 0.078125 0.078125 0.078125 0.078125 0.15625 0.078125 0.23438 0.15625 0.54297 0.54297 1.1641 0.92969 1.8633 1.2422 0.77734 0.30859 1.6289 0.54297 2.4844 0.54297l166.55-0.003906c0.85156 0 1.707-0.15625 2.4844-0.54297 0.69922-0.30859 1.3203-0.77734 1.8633-1.2422 0.078125-0.078125 0.15625-0.078125 0.23438-0.15625 0 0 0-0.078125 0.078125-0.078125 0.54297-0.62109 1.0078-1.2422 1.3203-2.0156 0.30859-0.77734 0.46484-1.6289 0.46484-2.4844l-0.003906-166.47c0-0.85156-0.15625-1.707-0.46484-2.4844-0.69922-1.6289-1.9375-2.8711-3.4922-3.4922-0.77734-0.30859-1.6289-0.46484-2.4844-0.46484h-166.55zm71.758 101.16c-3.0273-3.0273-4.7305-7.0586-4.7305-11.402s1.6289-8.2227 4.8086-11.402c2.9492-3.0273 7.1367-4.7305 11.402-4.7305 4.2656 0 8.3789 1.707 11.402 4.8086 3.1016 3.1016 4.8086 7.0586 4.8086 11.402s-1.707 8.3789-4.8086 11.48c-5.2734 5.3516-14.117 6.0508-20.324 1.9375-0.92969-0.62109-1.7812-1.3164-2.5586-2.0938zm26.996-36.07c-4.5781-2.8711-9.9297-4.5781-15.438-4.5781-5.5078 0-10.938 1.6289-15.516 4.5781l-52.133-52.133h135.14zm-40.184 9.2305c-2.9492 4.5781-4.5781 9.9297-4.5781 15.438 0 5.6641 1.6289 10.938 4.5 15.516l-52.133 52.133 0.003907-135.22zm9.2305 40.105c4.5781 2.9492 9.9297 4.5 15.516 4.5 1.9375 0 3.8789-0.15625 5.7422-0.54297 3.4922-0.69922 6.75-2.0938 9.6953-3.957l52.055 52.055h-135.14zm40.105-9.1523c0.54297-0.85156 0.92969-1.707 1.3945-2.5586 0.30859-0.62109 0.69922-1.0859 0.92969-1.707 0.54297-1.3203 0.85156-2.6367 1.2422-4.0352 0.15625-0.46484 0.30859-0.92969 0.46484-1.4727 0.38672-1.8633 0.54297-3.8008 0.54297-5.8164 0-3.4141-0.69922-6.75-1.8633-9.9297-0.15625-0.38672-0.23438-0.77734-0.38672-1.1641-0.15625-0.38672-0.38672-0.69922-0.54297-1.0078-0.54297-1.1641-1.0859-2.25-1.7852-3.3359l52.133-52.133v135.14z"/>
 <path d="m335.9 367.48h-166.55c-3.5703 0-6.5156 2.9492-6.5156 6.5156 0 3.5703 2.9492 6.5156 6.5156 6.5156h166.55c3.5703 0 6.5156-2.9492 6.5156-6.5156 0-3.6445-2.9453-6.5156-6.5156-6.5156z"/>
 <path d="m335.9 403.62h-166.55c-3.5703 0-6.5156 2.9492-6.5156 6.5156 0 3.5703 2.9492 6.5156 6.5156 6.5156l166.55 0.003906c3.5703 0 6.5156-2.9492 6.5156-6.5156 0-3.5703-2.9453-6.5195-6.5156-6.5195z"/>
</svg>
